Coordinates
version=1
nRows=23
nColumns=30
inDegrees=yes

Units are S.I. units (second, meters, Newtons, ...)
Angles are in degrees.

endheader
time	floatyaw	floatroll	floatpitch	floatx	floaty	floatz	pro_sup_l	deviation_l	flexion_l	cmc_flexion_l	cmc_abduction_l	mp_flexion_l	ip_flexion_l	2mcp_flexion_l	2mcp_abduction_l	2pm_flexion_l	2md_flexion_l	3mcp_flexion_l	3mcp_abduction_l	3pm_flexion_l	3md_flexion_l	4mcp_flexion_l	4mcp_abduction_l	4pm_flexion_l	4md_flexion_l	5mcp_flexion_l	5mcp_abduction_l	5pm_flexion_l	5md_flexion_l
0.005000	-160.147433	-5.066637	-73.570646	-0.069364	-0.138894	-0.118897	80.468359	12.038700	-7.151142	11.869305	8.179042	-34.315858	-54.937408	56.381285	16.756179	51.676595	54.926238	60.315036	6.785889	63.019537	35.105903	46.849618	-6.662366	73.113361	51.328236	41.874939	-14.834634	87.561418	69.089090
0.015000	-160.147433	-5.066637	-73.570646	-0.069974	-0.136302	-0.119221	79.525748	11.655898	-7.782543	11.363603	9.649727	-34.578216	-55.522758	57.911033	16.879907	51.264472	55.159283	61.438476	6.785924	63.048644	34.939644	47.909227	-6.689772	73.152546	51.470219	43.172444	-14.920951	88.088208	69.551309
0.025000	-160.147433	-5.066637	-73.570646	-0.070568	-0.133361	-0.119509	78.634981	11.314500	-8.415523	10.810057	11.373824	-34.802875	-56.086541	59.561653	16.986469	50.682439	55.306279	62.680980	6.766103	62.882001	34.654797	49.133768	-6.727102	72.936151	51.555200	44.490959	-14.976611	88.512452	69.955871
0.035000	-160.147433	-5.066637	-73.570646	-0.071159	-0.130428	-0.119741	77.797299	10.998502	-8.990355	10.129097	13.196100	-34.993676	-56.571182	61.335422	17.076086	49.907167	55.374932	64.067867	6.720349	62.524702	34.195871	50.526578	-6.779353	72.470942	51.575818	45.772662	-14.972890	88.857838	70.241007
0.045000	-160.147433	-5.066637	-73.570646	-0.071731	-0.127891	-0.119911	77.001661	10.699069	-9.457708	9.307326	14.935034	-35.159171	-56.950289	63.137868	17.152897	48.997159	55.383064	65.540564	6.649458	62.038571	33.566563	51.996959	-6.846375	71.846828	51.562774	46.939267	-14.899934	89.137149	70.374677
0.055000	-160.147433	-5.066637	-73.570646	-0.072238	-0.126051	-0.120023	76.232470	10.419662	-9.795251	8.403788	16.422925	-35.295491	-57.217008	64.809168	17.223666	48.069833	55.355234	66.962446	6.561861	61.526478	32.833827	53.382339	-6.921332	71.206136	51.566603	47.904831	-14.772098	89.354876	70.370857
0.065000	-160.147433	-5.066637	-73.570646	-0.072616	-0.125026	-0.120091	75.483552	10.173276	-10.011560	7.522793	17.546312	-35.383656	-57.371365	66.187810	17.294664	47.255202	55.313249	68.167618	6.471407	61.095801	32.103965	54.507257	-6.992874	70.688002	51.631267	48.598013	-14.622162	89.520035	70.287189
0.075000	-160.147433	-5.066637	-73.570646	-0.072818	-0.124731	-0.120132	74.765771	9.971974	-10.135763	6.769593	18.267882	-35.405840	-57.419809	67.173433	17.368433	46.647803	55.267590	69.029529	6.392571	60.817905	31.481610	55.251221	-7.049920	70.378059	51.774050	48.991140	-14.486983	89.654266	70.200208
0.085000	-160.147433	-5.066637	-73.570646	-0.072838	-0.124932	-0.120167	74.101251	9.815595	-10.200006	6.212407	18.621980	-35.364713	-57.381990	67.758041	17.442397	46.278822	55.215005	69.511564	6.335436	60.704842	31.032488	55.591204	-7.086033	70.288339	51.980584	49.119756	-14.392604	89.785530	70.169367
0.095000	-160.147433	-5.066637	-73.570646	-0.072717	-0.125351	-0.120205	73.509813	9.688141	-10.225030	5.866183	18.689902	-35.286343	-57.290857	68.014638	17.510332	46.117827	55.142773	69.672575	6.303054	60.714387	30.767388	55.599154	-7.101052	70.370991	52.213850	49.074440	-14.346607	89.932759	70.210940
0.105000	-160.147433	-5.066637	-73.570646	-0.072527	-0.125759	-0.120246	72.998557	9.564624	-10.215585	5.699245	18.567778	-35.203775	-57.180543	68.055872	17.565971	46.097374	55.036808	69.629171	6.292070	60.777260	30.650965	55.400459	-7.099778	70.551013	52.429688	48.963688	-14.340144	90.095509	70.297086
0.115000	-160.147433	-5.066637	-73.570646	-0.072337	-0.126031	-0.120277	72.560239	9.423285	-10.165576	5.654126	18.338795	-35.136110	-57.070398	67.987637	17.606408	46.144729	54.889736	69.500936	6.295590	60.829364	30.625764	55.118865	-7.089137	70.758815	52.591585	48.867892	-14.356315	90.256760	70.378110
0.125000	-160.147433	-5.066637	-73.570646	-0.072191	-0.126145	-0.120284	72.178814	9.255257	-10.067631	5.671190	18.057166	-35.079574	-56.957841	67.878997	17.633136	46.205913	54.705530	69.368314	6.306393	60.833563	30.637549	54.835732	-7.075445	70.949855	52.680677	48.810667	-14.379166	90.394818	70.411657
0.135000	-160.147433	-5.066637	-73.570646	-0.072093	-0.126145	-0.120258	71.837563	9.067066	-9.920828	5.706084	17.745502	-35.014582	-56.824778	67.755997	17.650388	46.254890	54.498963	69.258503	6.319125	60.785230	30.651758	54.578084	-7.062741	71.108312	52.699155	48.760978	-14.399109	90.494435	70.381393
0.145000	-160.147433	-5.066637	-73.570646	-0.072022	-0.126098	-0.120197	71.525791	8.876504	-9.732940	5.736834	17.401632	-34.920572	-56.651646	67.613435	17.662462	46.289348	54.290838	69.156450	6.331010	60.704733	30.657949	54.331798	-7.052443	71.239727	52.666431	48.659862	-14.413648	90.551063	70.297533
0.155000	-160.147433	-5.066637	-73.570646	-0.071946	-0.126061	-0.120110	71.241465	8.705328	-9.517341	5.761439	17.008641	-34.787811	-56.429294	67.432695	17.671960	46.319859	54.101745	69.027867	6.341434	60.623385	30.664605	54.065327	-7.044070	71.360305	52.609289	48.453626	-14.424805	90.569160	70.183645
0.165000	-160.147433	-5.066637	-73.570646	-0.071840	-0.126059	-0.120007	70.988959	8.572326	-9.287442	5.790097	16.544559	-34.620684	-56.162674	67.196075	17.679596	46.359356	53.947034	68.841121	6.351027	60.568870	30.689000	53.750127	-7.036448	71.488005	52.550143	48.116957	-14.435434	90.558954	70.060976
0.175000	-160.147433	-5.066637	-73.570646	-0.071697	-0.126092	-0.119896	70.773462	8.488979	-9.052062	5.836539	15.991461	-34.433436	-55.866495	66.893826	17.684966	46.416603	53.834623	68.580306	6.360738	60.555011	30.746669	53.371311	-7.028774	71.636497	52.499291	47.658864	-14.446354	90.534636	69.940424
0.185000	-160.147433	-5.066637	-73.570646	-0.071519	-0.126147	-0.119780	70.595450	8.458233	-8.813775	5.911293	15.343396	-34.242716	-55.556895	66.524660	17.687313	46.494034	53.766166	68.247395	6.371145	60.579349	30.844214	52.928809	-7.021014	71.811483	52.455349	47.113695	-14.455431	90.513670	69.825275
0.195000	-160.147433	-5.066637	-73.570646	-0.071317	-0.126209	-0.119656	70.448587	8.475702	-8.570218	6.017881	14.610240	-34.061224	-55.244065	66.092590	17.685846	46.588461	53.740719	67.855789	6.382113	60.628815	30.977790	52.432560	-7.013592	72.009499	52.412900	46.524705	-14.458762	90.514927	69.720133
0.205000	-160.147433	-5.066637	-73.570646	-0.071103	-0.126271	-0.119517	70.322091	8.532108	-8.316963	6.152067	13.815019	-33.894551	-54.929233	65.603391	17.679781	46.692875	53.758394	67.420449	6.392823	60.689498	31.137037	51.895745	-7.006749	72.219688	52.371390	45.928430	-14.453080	90.554281	69.637876
0.215000	-160.147433	-5.066637	-73.570646	-0.070881	-0.126327	-0.119363	70.205623	8.615981	-8.050260	6.304003	12.985705	-33.741050	-54.606491	65.062743	17.668480	46.798504	53.821054	66.950241	6.402095	60.754290	31.311468	51.329050	-7.000095	72.428271	52.338303	45.345046	-14.437892	90.639133	69.598511
0.225000	-160.147433	-5.066637	-73.570646	-0.070651	-0.126379	-0.119192	70.093395	8.716104	-7.768532	6.462532	12.145276	-33.593589	-54.267243	64.475905	17.651808	46.897353	53.929152	66.445635	6.408863	60.824402	31.495182	50.737336	-6.992649	72.624202	52.324091	44.775277	-14.416118	90.765250	69.619756
